<?xml version="1.0" encoding="utf-8"?>
<!-- Generator: Adobe Illustrator 25.2.3, SVG Export Plug-In . SVG Version: 6.00 Build 0)  -->
<svg version="1.1" id="Layer_1" xmlns="http://www.w3.org/2000/svg" xmlns:xlink="http://www.w3.org/1999/xlink" x="0px" y="0px"
	 viewBox="0 0 149 149" style="enable-background:new 0 0 149 149;" xml:space="preserve">
<style type="text/css">
	.st0{fill:#FFFFFF;}
	.st1{fill:none;}
	.st2{fill:none;stroke:#3D0FB1;stroke-width:2;stroke-linecap:round;stroke-linejoin:round;}
	.st3{fill:none;stroke:#3D0FB1;stroke-width:2;}
</style>
<rect id="Rectangle_7" x="22" y="21.9" transform="matrix(0.7071 -0.7071 0.7071 0.7071 -31.108 74.4698)" class="st0" width="104.6" height="105.8"/>
<g id="Group_1" transform="translate(30.407 35.537)">
	<rect id="Rectangle_6" x="-0.2" y="0.7" class="st1" width="88.3" height="77.1"/>
	<ellipse id="Ellipse_1" class="st2" cx="43.9" cy="31.7" rx="35.4" ry="14.3"/>
	<line id="Line_1" class="st2" x1="44" y1="45.8" x2="44" y2="60.3"/>
	<path id="Path_1" class="st2" d="M8.2,31.8v14.5c0,7.2,13.7,14.5,35.6,14.5s35.6-7.2,35.6-14.5V31.8"/>
	<line id="Line_2" class="st2" x1="65.7" y1="43.3" x2="65.7" y2="57.8"/>
	<line id="Line_3" class="st2" x1="21.9" y1="43.3" x2="21.9" y2="57.8"/>
</g>
<g id="Rectangle_8" transform="translate(73.992 7.502) rotate(45)">
	
		<rect x="0.8" y="-0.2" transform="matrix(2.535182e-06 1 -1 2.535182e-06 95.1527 -0.4907)" class="st1" width="94" height="95.1"/>
	<rect x="1.8" y="0.8" transform="matrix(2.535182e-06 1 -1 2.535182e-06 95.1527 -0.4907)" class="st3" width="92" height="93.1"/>
</g>
</svg>
